<?xml version="1.0" encoding="UTF-8" standalone="no"?>
<!-- Generator: Adobe Illustrator 24.0.0, SVG Export Plug-In . SVG Version: 6.00 Build 0)  -->

<svg
   version="1.1"
   id="Layer_1"
   viewBox="0 0 104.2 27.1"
   xml:space="preserve"
   sodipodi:docname="altmetric.svg"
   width="104.2"
   height="27.1"
   inkscape:version="1.4.2 (ebf0e94, 2025-05-08)"
   xmlns:inkscape="http://www.inkscape.org/namespaces/inkscape"
   xmlns:sodipodi="http://sodipodi.sourceforge.net/DTD/sodipodi-0.dtd"
   xmlns="http://www.w3.org/2000/svg"
   xmlns:svg="http://www.w3.org/2000/svg"><defs
   id="defs9" /><sodipodi:namedview
   id="namedview9"
   pagecolor="#505050"
   bordercolor="#eeeeee"
   borderopacity="1"
   inkscape:showpageshadow="0"
   inkscape:pageopacity="0"
   inkscape:pagecheckerboard="0"
   inkscape:deskcolor="#d1d1d1"
   showgrid="false"
   inkscape:zoom="10"
   inkscape:cx="52.1"
   inkscape:cy="13.55"
   inkscape:current-layer="Layer_1" />
<style
   type="text/css"
   id="style1">
	.st0{fill:#111111;}
	.st1{fill:#FFCB00;}
	.st2{fill:#314D9B;}
	.st3{fill:#3EB9EB;}
	.st4{fill:#A1C517;}
	.st5{fill:#921C70;}
	.st6{fill:#2A245B;}
	.st7{fill:#F08800;}
	.st8{fill:#E4261F;}
</style>
<g
   id="g9"
   transform="translate(-7.9,-16.4)">
	<g
   id="g1">
		<path
   class="st0"
   d="M 44.5,32.6 43.2,37 h -1.7 l 4.4,-14 h 2 l 4.4,14 h -1.8 l -1.4,-4.4 z m 4.2,-1.4 -1.2,-4 C 47.2,26.3 47,25.4 46.8,24.6 v 0 c -0.2,0.8 -0.4,1.7 -0.6,2.5 l -1.3,4.1 z m 5.1,-8.9 h 1.7 v 14.8 h -1.7 z m 6.3,1.8 V 27 h 2.4 v 1.4 h -2.4 v 5.4 c 0,1.2 0.3,2 1.2,2 0.4,0 0.8,-0.1 1,-0.1 l 0.1,1.4 c -0.3,0.2 -0.8,0.2 -1.5,0.2 -0.8,0 -1.4,-0.3 -1.8,-0.8 -0.5,-0.6 -0.6,-1.4 -0.6,-2.6 V 28.4 H 57 V 27 h 1.4 v -2.4 z m 4.1,5.6 c 0,-1 0,-1.9 -0.1,-2.7 h 1.5 l 0.1,1.6 v 0 c 0.5,-1 1.4,-1.8 2.9,-1.8 1.2,0 2.2,0.8 2.6,2 v 0 c 0.3,-0.6 0.6,-1 1,-1.3 0.6,-0.4 1.2,-0.7 2,-0.7 1.2,0 3,0.9 3,4.4 V 37 h -1.6 v -5.7 c 0,-1.9 -0.6,-3.1 -2,-3.1 -1,0 -1.7,0.8 -2,1.7 -0.1,0.2 -0.1,0.6 -0.1,0.9 V 37 h -1.7 v -6 c 0,-1.6 -0.6,-2.8 -1.9,-2.8 -1,0 -1.8,0.9 -2.1,1.8 -0.1,0.3 -0.1,0.6 -0.1,0.9 V 37 h -1.6 z m 16.5,2.6 c 0,2.5 1.5,3.5 3.2,3.5 1.2,0 1.9,-0.2 2.6,-0.5 l 0.3,1.3 c -0.6,0.3 -1.6,0.6 -3,0.6 -2.8,0 -4.5,-2 -4.5,-5.1 0,-3.1 1.6,-5.4 4.3,-5.4 3,0 3.8,2.9 3.8,4.7 0,0.4 0,0.7 0,0.8 z M 85.6,31 c 0,-1.2 -0.4,-3 -2.3,-3 -1.7,0 -2.4,1.7 -2.6,3 z m 5.5,-6.9 V 27 h 2.4 v 1.4 h -2.4 v 5.4 c 0,1.2 0.3,2 1.2,2 0.4,0 0.8,-0.1 1,-0.1 l 0.1,1.4 c -0.3,0.2 -0.8,0.2 -1.5,0.2 -0.8,0 -1.4,-0.3 -1.8,-0.8 -0.5,-0.6 -0.6,-1.4 -0.6,-2.6 V 28.4 H 88 V 27 h 1.4 v -2.4 c 0.1,0 1.7,-0.5 1.7,-0.5 z m 4.1,6 c 0,-1.2 0,-2.2 -0.1,-3.1 h 1.5 v 2 h 0.1 c 0.4,-1.4 1.4,-2.2 2.6,-2.2 0.2,0 0.3,0 0.5,0.1 v 1.7 c -0.2,0 -0.4,-0.1 -0.6,-0.1 -1.2,0 -2,1 -2.2,2.4 0,0.2 -0.1,0.6 -0.1,0.8 v 5.4 h -1.6 z m 8,-6 c 0,0.6 -0.4,1.1 -1.1,1.1 -0.6,0 -1,-0.5 -1,-1.1 0,-0.6 0.4,-1.2 1,-1.2 0.7,0.1 1.1,0.6 1.1,1.2 z m -1.9,13 V 27 h 1.7 v 10.1 z m 10.8,-0.4 c -0.4,0.2 -1.4,0.6 -2.6,0.6 -2.8,0 -4.6,-2 -4.6,-5.1 0,-3.1 1.9,-5.4 4.9,-5.4 1,0 1.9,0.3 2.3,0.5 l -0.4,1.4 c -0.4,-0.2 -1,-0.5 -1.9,-0.5 -2.1,0 -3.2,1.7 -3.2,3.8 0,2.3 1.4,3.8 3.2,3.8 1,0 1.6,-0.3 2,-0.5 0.1,0 0.3,1.4 0.3,1.4 z"
   id="path1" />
	</g>
	<path
   class="st1"
   d="m 26.4,38.2 c 0.5,-0.9 0.9,-1.9 1,-3 -1.3,1.5 -3.2,2.5 -5.4,2.7 -0.9,0.6 -1.8,1.1 -2.8,1.4 C 16,40.2 12.5,39.4 10,36.9 9.8,36.7 9.5,36.4 9.3,36.1 c 0,0 0,0.1 0.1,0.2 1.6,3.1 4.4,5.5 7.8,6.7 0.4,0 0.7,0.1 1,0.1 3.5,-0.1 6.6,-2 8.2,-4.9 z"
   id="path2" />
	<path
   class="st2"
   d="M 13.6,30.5 V 30 c 0,-2 0.7,-3.8 1.9,-5.2 v 0 c 0,0 0,-0.1 0,-0.2 v 0 c 0,-0.1 0,-0.1 0,-0.2 0.8,-3.6 3.6,-6.5 7.3,-7.2 0.9,-0.2 1.8,-0.2 2.8,-0.1 -1.3,-0.4 -2.7,-0.7 -4.2,-0.7 -2.2,0 -4.2,0.5 -6.1,1.4 -0.3,0.2 -0.5,0.4 -0.8,0.7 -3.2,3.3 -3.5,8.4 -0.9,12 z"
   id="path3" />
	<path
   class="st3"
   d="m 13.3,34.9 c 0.9,0.5 1.9,0.9 3,1 -1.5,-1.3 -2.5,-3.2 -2.7,-5.4 -2.6,-3.6 -2.3,-8.7 1,-12 0.2,-0.2 0.5,-0.5 0.8,-0.7 0,0 -0.1,0 -0.1,0 -3.2,1.6 -5.6,4.4 -6.7,7.8 0,0.4 -0.1,0.7 -0.1,1 0,3.7 1.9,6.7 4.8,8.3 z"
   id="path4" />
	<path
   class="st4"
   d="m 19.2,39.3 c 1,-0.3 2,-0.8 2.8,-1.4 h -0.5 c -2,0 -3.8,-0.7 -5.2,-1.9 -1.1,-0.2 -2.1,-0.5 -3,-1 -2.9,-1.6 -4.8,-4.6 -4.8,-8.1 0,-0.4 0,-0.7 0.1,-1 0,0 0,0.1 0,0.2 -0.4,1.3 -0.7,2.7 -0.7,4.1 0,2.2 0.5,4.2 1.4,6.1 0.2,0.3 0.4,0.5 0.7,0.8 2.5,2.3 6,3 9.2,2.2 z"
   id="path5" />
	<path
   class="st5"
   d="m 33.6,23.9 c -0.2,-0.3 -0.4,-0.5 -0.7,-0.8 -2.5,-2.5 -6,-3.2 -9.2,-2.4 -1,0.3 -2,0.8 -2.8,1.4 h 0.5 c 2,0 3.8,0.7 5.2,1.9 1.1,0.2 2.1,0.5 3,1 2.9,1.6 4.8,4.6 4.8,8.1 0,0.4 0,0.7 -0.1,1 0,-0.1 0,-0.1 0.1,-0.2 0.4,-1.3 0.7,-2.6 0.7,-4.1 0,-2 -0.5,-4 -1.5,-5.9 z"
   id="path6" />
	<path
   class="st6"
   d="m 22.9,17.2 c -3.6,0.7 -6.5,3.6 -7.3,7.2 0,0.1 0,0.1 0,0.2 v 0 c 0,0 0,0.1 0,0.2 v 0 c 1.3,-1.5 3.2,-2.5 5.4,-2.7 0.9,-0.6 1.8,-1.1 2.8,-1.4 3.2,-0.9 6.7,-0.1 9.2,2.4 0.2,0.2 0.5,0.5 0.7,0.8 0,-0.1 -0.1,-0.1 -0.1,-0.2 -1.6,-3.1 -4.4,-5.5 -7.8,-6.6 0,0 0,0 -0.1,0 C 24.8,17 23.8,17 22.9,17.2 Z"
   id="path7" />
	<path
   class="st7"
   d="m 30.7,32.3 c -0.3,-1 -0.8,-2 -1.4,-2.8 V 30 c 0,2 -0.7,3.8 -1.9,5.2 -0.2,1.1 -0.5,2.1 -1,3 -1.6,2.9 -4.6,4.8 -8.1,4.8 -0.4,0 -0.7,0 -1,-0.1 0,0 0.1,0 0.2,0 1.3,0.4 2.7,0.6 4.2,0.6 2.2,0 4.2,-0.5 6.1,-1.4 0.3,-0.2 0.5,-0.4 0.8,-0.7 2.2,-2.4 3,-5.9 2.1,-9.1 z"
   id="path8" />
	<path
   class="st8"
   d="m 29.6,25.1 c -0.9,-0.5 -1.9,-0.9 -3,-1 1.5,1.3 2.5,3.2 2.7,5.4 0.6,0.9 1.1,1.8 1.4,2.8 0.9,3.2 0.1,6.7 -2.4,9.2 -0.2,0.2 -0.5,0.5 -0.8,0.7 0.1,0 0.2,-0.1 0.3,-0.2 3.1,-1.6 5.4,-4.4 6.6,-7.7 0,-0.4 0.1,-0.7 0.1,-1 -0.1,-3.5 -2,-6.6 -4.9,-8.2 z"
   id="path9" />
</g>
</svg>
