<svg height="312" viewBox="-104 345 312 312" width="312" xmlns="http://www.w3.org/2000/svg"><path d="m-104 345h312v312h-312z" fill="#78e3e0" stroke-linecap="round" stroke-linejoin="round"/><g transform="translate(14.1 104)"><g fill="#050d42"><path d="m79.2 367.2h10.6v2.1h-8.3v4.7h7.7v2h-7.7v4.9h8.3v2.1h-10.6z"/><path d="m102.2 379.1 1.3 3.8h-2.3l-1.1-3.6v2.2c-.6.9-1.5 1.8-3.4 1.8-2.6 0-4.1-1.6-4.1-4.3v-7.1h2.2v6.8c0 1.8.8 2.7 2.4 2.7 1.8 0 3-1.4 3-3.9v-5.6h2.2z"/><path d="m107.7 371.8v3.8l.6-2.9c.5-.5 1.4-1.2 2.8-1.2.3 0 .5 0 .9.1v2.2c-.4-.1-.7-.2-1.1-.2-1.8 0-3.1 1.1-3.1 3.8v5.4h-2.2v-11.1z"/><path d="m124.7 377.3c0 3.5-2.6 5.9-6 5.9s-6-2.4-6-5.9 2.6-5.9 6-5.9c3.3 0 6 2.4 6 5.9zm-6.1 3.9c2.2 0 3.7-1.5 3.7-3.8s-1.5-3.9-3.7-3.9c-2.1 0-3.7 1.5-3.7 3.9 0 2.3 1.6 3.8 3.7 3.8z"/><path d="m129.9 382.2-.8-2.9v8.2h-2.2v-15.7h2.2v1.5c.9-1.1 2.2-1.9 4-1.9 3.4 0 5.6 2.6 5.6 5.9s-2.3 5.9-5.6 5.9c-1.5 0-2.6-.5-3.2-1zm2.8-1c2.3 0 3.7-1.7 3.7-3.8 0-2.2-1.4-3.9-3.7-3.9-2.2 0-3.7 1.7-3.7 3.9s1.5 3.8 3.7 3.8z"/><path d="m151.1 377.1v.9h-8.5c.2 2.2 1.6 3.3 3.4 3.3 1.7 0 2.7-.7 3.3-2.1l1.7 1.4c-1.1 1.8-3 2.5-5 2.5-3.5 0-5.7-2.4-5.7-5.9 0-3.4 2.3-5.9 5.5-5.9 3.3.1 5.3 2.4 5.3 5.8zm-2.4-.7c0-1.9-1.1-3.1-3-3.1-1.6 0-2.9 1-3.2 3.1z"/><path d="m164.7 378 1.7 4.9h-2.3l-1.4-4.2-.2 2.8c-.8 1-2.1 1.8-4 1.8-3.4 0-5.6-2.6-5.6-5.9s2.2-5.9 5.6-5.9c1.8 0 3.1.7 4 1.9v-1.5h2.2zm-5.9 3.2c2.2 0 3.7-1.6 3.7-3.8s-1.5-3.9-3.7-3.9c-2.3 0-3.7 1.7-3.7 3.9 0 2.1 1.5 3.8 3.7 3.8z"/><path d="m170.4 371.8v3.4l.6-2.5c.5-.6 1.4-1.2 3-1.2 2.7 0 4.2 1.7 4.2 4.7v6.8h-2.2v-6.5c0-2-.8-3-2.6-3-1.9 0-3 1.3-3 3.5v6h-2.2v-11.1z"/><path d="m90.4 393.8-2.1.9c0-2-1.4-3.4-3.8-3.4-2 0-3.5.9-3.5 2.5 0 4 9.6.9 9.6 7.2 0 3-2.6 4.7-6 4.7s-5.9-1.9-6.3-5l2.2-1.1c0 2.4 1.5 4 4.1 4 2.1 0 3.6-1 3.6-2.6 0-4.2-9.6-1-9.6-7.2 0-2.9 2.7-4.6 5.8-4.6 3.6.2 5.8 2.2 6 4.6z"/><path d="m103.4 397-1.9 1.2c-.4-1.4-1.7-2.2-3.1-2.2-2.2 0-3.6 1.5-3.6 3.9s1.4 3.8 3.6 3.8c1.5 0 2.8-.9 3.1-2.1l1.9 1.2c-.7 1.8-2.7 3-5.1 3-3.5 0-5.9-2.4-5.9-5.9s2.5-5.9 5.9-5.9c2.4 0 4.3 1.3 5.1 3z"/><path d="m105.4 389.7h2.5v2.4h-2.5zm2.3 4.6v11.1h-2.2v-11.1z"/><path d="m120.8 399.7v.9h-8.5c.2 2.2 1.6 3.3 3.4 3.3 1.7 0 2.7-.7 3.3-2.1l1.7 1.4c-1.1 1.8-3 2.5-5 2.5-3.5 0-5.7-2.4-5.7-5.9 0-3.4 2.3-5.9 5.5-5.9 3.3.1 5.3 2.4 5.3 5.8zm-2.4-.8c0-1.9-1.1-3.1-3-3.1-1.6 0-2.9 1-3.2 3.1z"/><path d="m125.4 394.3v3.4l.6-2.5c.5-.6 1.4-1.2 3-1.2 2.7 0 4.2 1.7 4.2 4.7v6.8h-2.2v-6.5c0-2-.8-3-2.6-3-1.9 0-3 1.3-3 3.5v6h-2.2v-11.1z"/><path d="m146.3 397-1.9 1.2c-.4-1.4-1.7-2.2-3.1-2.2-2.2 0-3.6 1.5-3.6 3.9s1.4 3.8 3.6 3.8c1.5 0 2.8-.9 3.1-2.1l1.9 1.2c-.7 1.8-2.7 3-5.1 3-3.5 0-5.9-2.4-5.9-5.9s2.5-5.9 5.9-5.9c2.4 0 4.4 1.3 5.1 3z"/><path d="m158.6 399.7v.9h-8.5c.2 2.2 1.6 3.3 3.4 3.3 1.7 0 2.7-.7 3.3-2.1l1.7 1.4c-1.1 1.8-3 2.5-5 2.5-3.5 0-5.7-2.4-5.7-5.9 0-3.4 2.3-5.9 5.5-5.9 3.3.1 5.3 2.4 5.3 5.8zm-2.3-.8c0-1.9-1.1-3.1-3-3.1-1.6 0-2.9 1-3.2 3.1z"/><path d="m79.2 412.3h10.6v2.1h-8.3v4.7h7.7v2h-7.7v4.9h8.3v2.1h-10.6z"/><path d="m103.7 423.2 1.7 4.9h-2.3l-1.4-4.1-.2 2.7c-.8 1-2.1 1.8-4 1.8-3.4 0-5.6-2.6-5.6-5.9s2.2-5.9 5.6-5.9c1.8 0 3.1.7 4 1.9v-6.1h2.2zm-5.9 3.1c2.2 0 3.7-1.6 3.7-3.8s-1.5-3.9-3.7-3.9c-2.3 0-3.7 1.7-3.7 3.9s1.5 3.8 3.7 3.8z"/><path d="m107 412.3h2.5v2.4h-2.5zm2.4 4.6v11.1h-2.2v-11.1z"/><path d="m115.5 412.7v4.2h3.2v1.9h-3.2v5.7c0 1.4.5 1.7 1.7 1.7.3 0 .9-.1 1.3-.1v2c-.3.1-1.3.2-1.6.2-2.3 0-3.6-1-3.6-3.4v-6h-2v-1.9h2v-2.6z"/><path d="m120.8 412.3h2.5v2.4h-2.5zm2.4 4.6v11.1h-2.2v-11.1z"/><path d="m128.3 416.9v3.4l.6-2.5c.5-.6 1.4-1.2 3-1.2 2.7 0 4.2 1.7 4.2 4.7v6.8h-2.2v-6.5c0-2-.8-3-2.6-3-1.9 0-3 1.3-3 3.5v6h-2.2v-11.1z"/><path d="m149.8 416.9v10.8c0 3.2-2.3 5.2-5.9 5.2-2.9 0-4.8-1.1-5.6-3.2l1.9-1.3c.5 1.7 1.8 2.6 3.7 2.6 2.2 0 3.6-1.3 3.6-3.4v-3.6l-.7 2.8c-.5.4-1.7 1-3.1 1-3.4 0-5.5-2.4-5.5-5.6s2.2-5.7 5.5-5.7c1.7 0 3 .7 3.8 1.7v-1.4h2.3zm-5.7 8.9c2.1 0 3.5-1.6 3.5-3.6 0-2.1-1.4-3.7-3.5-3.7-2.2 0-3.6 1.6-3.6 3.7 0 2 1.3 3.6 3.6 3.6z"/></g><g fill="#050d42"><path d="m-67 396.6c0 .9 0 1.8-.1 2.9h-27.7c.8 7.2 5.3 10.7 11.1 10.7 5.4 0 8.9-2.2 10.9-6.8l5.4 4.7c-3.4 5.7-9.8 8.3-16.4 8.3-11.3 0-18.6-7.9-18.6-19.1 0-11.1 7.6-19.4 18-19.4 10.8 0 17.4 7.6 17.4 18.7zm-7.8-2.5c0-6-3.7-10-9.7-10-5.1 0-9.3 3.3-10.3 10z"/><path d="m-29.3 388.4-6.8 2.6c-.3-4.6-3.5-7.3-8.7-7.3-4.6 0-7.3 2.2-7.3 5.1 0 8 23.3 2.1 23.3 16.4 0 7.3-6.4 11.2-15.3 11.2-9.3 0-15.4-4.4-16.6-11l7-3c.3 5.5 4.1 8.2 9.5 8.2 4.2 0 7.5-1.5 7.5-4.9 0-8.1-23-1.9-23-16.4 0-6.6 6.8-11.3 14.8-11.3 8.6-.1 14.6 4.1 15.6 10.4z"/><path d="m12.1 396.6c0 .9 0 1.8-.1 2.9h-27.7c.8 7.2 5.3 10.7 11.1 10.7 5.4 0 8.9-2.2 10.9-6.8l5.4 4.7c-3.4 5.7-9.8 8.3-16.4 8.3-11.3 0-18.6-7.9-18.6-19.1 0-11.1 7.6-19.4 18-19.4 10.8 0 17.4 7.6 17.4 18.7zm-7.8-2.5c0-6-3.7-10-9.7-10-5.1 0-9.3 3.3-10.3 10z"/></g><path d="m77.9 348.9-58.5 96.2h-12.4l58.3-96.2z" fill="#fff"/></g></svg>