<?xml version="1.0" encoding="UTF-8" standalone="no"?>
<svg
   id="a"
   viewBox="0 0 280.01001 87.089996"
   version="1.1"
   sodipodi:docname="oaspa.svg"
   width="280.01001"
   height="87.089996"
   inkscape:version="1.4.2 (ebf0e94, 2025-05-08)"
   xmlns:inkscape="http://www.inkscape.org/namespaces/inkscape"
   xmlns:sodipodi="http://sodipodi.sourceforge.net/DTD/sodipodi-0.dtd"
   xmlns="http://www.w3.org/2000/svg"
   xmlns:svg="http://www.w3.org/2000/svg">
  <defs
     id="defs5" />
  <sodipodi:namedview
     id="namedview5"
     pagecolor="#505050"
     bordercolor="#eeeeee"
     borderopacity="1"
     inkscape:showpageshadow="0"
     inkscape:pageopacity="0"
     inkscape:pagecheckerboard="0"
     inkscape:deskcolor="#d1d1d1"
     showgrid="false"
     inkscape:zoom="4.2814329"
     inkscape:cx="139.90643"
     inkscape:cy="47.530816"
     inkscape:current-layer="a" />
  <path
     d="M 253.57,0 C 238.98,0 227.15,11.77 227.15,26.29 V 87 h 17.62 V 52.42 h 15.99 c 0.53,0.1 1.07,0.16 1.63,0.16 v 34.36 h 17.62 V 26.29 C 280.01,11.77 268.18,0 253.58,0 Z m -8.8,26.29 c 0,-4.84 3.94,-8.76 8.81,-8.76 4.87,0 8.79,3.91 8.81,8.73 v 8.79 c -0.37,0 -0.74,0.03 -1.1,0.07 h -16.52 v -8.84 z"
     stroke-width="0"
     id="path1" />
  <path
     d="M 83.21,0 C 68.62,0 56.79,11.77 56.79,26.29 V 87 H 74.41 V 52.42 H 90.4 c 0.53,0.1 1.07,0.16 1.63,0.16 v 34.36 h 17.62 V 26.29 C 109.65,11.77 97.82,0 83.22,0 Z M 74.4,26.29 c 0,-4.84 3.94,-8.76 8.81,-8.76 4.87,0 8.79,3.91 8.81,8.73 v 8.79 c -0.37,0 -0.74,0.03 -1.1,0.07 H 74.4 v -8.84 z"
     stroke-width="0"
     id="path2" />
  <path
     d="m 166.43,60.9 v 0.09 c 0,0.42 0,0.84 -0.03,1.25 -0.71,13.8 -12.25,24.77 -26.38,24.77 -14.13,0 -25.67,-10.97 -26.38,-24.77 -0.02,-0.41 -0.03,-0.83 -0.03,-1.25 V 60.9 c 0,0 0,-0.07 0,-0.11 h 17.6 v 0.11 c 0,0.18 0,0.36 0.02,0.53 0.02,0.27 0.04,0.53 0.08,0.79 0.02,0.13 0.04,0.27 0.07,0.4 0.82,3.98 4.38,6.98 8.64,6.98 4.84,0 8.77,-3.86 8.8,-8.65 h -0.02 c 0,-1.8 -0.56,-3.48 -1.5,-4.87 -0.07,-0.11 -0.15,-0.23 -0.25,-0.34 -0.13,-0.19 -0.28,-0.36 -0.44,-0.54 -0.05,-0.06 -0.11,-0.13 -0.17,-0.19 -0.2,-0.21 -0.43,-0.42 -0.65,-0.61 -0.11,-0.08 -0.21,-0.17 -0.33,-0.26 -1.5,-1.19 -3.4,-1.89 -5.46,-1.89 -7.5,0 -14.28,-3.1 -19.09,-8.06 -0.26,-0.27 -0.52,-0.56 -0.78,-0.84 -0.25,-0.29 -0.51,-0.58 -0.74,-0.88 -0.24,-0.29 -0.47,-0.58 -0.69,-0.88 -0.44,-0.59 -0.86,-1.2 -1.24,-1.84 -0.11,-0.17 -0.21,-0.34 -0.31,-0.52 -0.02,-0.02 -0.03,-0.05 -0.04,-0.07 -0.19,-0.32 -0.37,-0.64 -0.54,-0.97 -0.03,-0.06 -0.06,-0.11 -0.09,-0.16 -0.08,-0.16 -0.16,-0.32 -0.25,-0.49 -0.09,-0.19 -0.18,-0.38 -0.27,-0.57 -0.09,-0.19 -0.18,-0.38 -0.26,-0.58 -0.25,-0.58 -0.48,-1.18 -0.69,-1.78 -0.07,-0.2 -0.14,-0.4 -0.2,-0.61 -0.13,-0.4 -0.25,-0.82 -0.36,-1.24 -0.27,-0.97 -0.47,-1.96 -0.61,-2.98 -0.16,-1.12 -0.25,-2.27 -0.25,-3.44 v -0.11 c 0,-0.45 0,-0.9 0.03,-1.34 0.04,-0.87 0.13,-1.72 0.25,-2.56 C 115.73,9.69 126.71,0 139.99,0 c 13.28,0 24.26,9.69 26.13,22.3 0.12,0.84 0.21,1.7 0.25,2.56 0.02,0.44 0.03,0.89 0.03,1.34 0,0.03 0,0.07 0,0.11 h -17.61 c 0,-0.06 0,-0.13 0,-0.19 0,-0.15 0,-0.3 0,-0.44 -0.02,-0.27 -0.05,-0.53 -0.08,-0.79 -0.61,-4.22 -4.28,-7.46 -8.71,-7.46 -4.87,0 -8.81,3.9 -8.81,8.7 v 0.19 c 0.03,1.79 0.62,3.43 1.59,4.79 0.15,0.2 0.29,0.4 0.45,0.58 0.22,0.27 0.46,0.52 0.7,0.75 0.1,0.09 0.2,0.18 0.29,0.26 0.11,0.09 0.22,0.19 0.34,0.27 1.5,1.16 3.39,1.85 5.44,1.85 7.06,0 13.46,2.73 18.19,7.2 0.32,0.29 0.62,0.6 0.92,0.91 0.25,0.25 0.48,0.51 0.71,0.77 0.74,0.82 1.42,1.7 2.05,2.61 0.12,0.17 0.24,0.35 0.34,0.52 0.12,0.18 0.24,0.36 0.34,0.54 0.11,0.17 0.21,0.34 0.31,0.52 0.02,0.02 0.03,0.05 0.04,0.07 0.19,0.32 0.37,0.64 0.54,0.97 0.03,0.05 0.07,0.11 0.09,0.16 0.08,0.16 0.16,0.32 0.25,0.49 0.21,0.43 0.41,0.86 0.59,1.3 0.02,0.05 0.04,0.11 0.07,0.15 0.02,0.04 0.03,0.09 0.05,0.13 0.12,0.3 0.24,0.59 0.34,0.89 0.05,0.12 0.09,0.24 0.13,0.36 0.21,0.61 0.41,1.24 0.58,1.87 0.56,2.1 0.86,4.31 0.87,6.59 l 0.02,0.02 z"
     stroke-width="0"
     id="path3" />
  <path
     d="M 35.24,1.5 C 32.49,0.53 29.52,0 26.43,0 23.34,0 20.37,0.53 17.62,1.5 7.35,5.11 0,14.85 0,26.31 V 60.7 c 0,11.46 7.35,21.2 17.61,24.81 2.75,0.97 5.72,1.5 8.81,1.5 3.09,0 6.06,-0.53 8.81,-1.5 C 45.5,81.9 52.84,72.16 52.84,60.7 V 26.31 C 52.84,14.85 45.49,5.11 35.23,1.5 Z m 0,59.23 c -0.02,4.83 -3.95,8.73 -8.81,8.73 -4.86,0 -8.8,-3.91 -8.81,-8.73 V 26.28 c 0.02,-4.83 3.95,-8.73 8.81,-8.73 4.86,0 8.8,3.91 8.81,8.73 z"
     stroke-width="0"
     id="path4" />
  <path
     d="m 196.8,0.09 h -26.43 v 87 h 17.61 v -34.5 h 8.82 c 14.59,0 26.42,-11.76 26.42,-26.26 0,-14.5 -11.83,-26.24 -26.42,-26.24 z m 0.03,35.01 h -8.85 V 17.6 h 8.82 c 4.86,0 8.81,3.91 8.81,8.75 0,4.84 -3.93,8.74 -8.78,8.76 z"
     stroke-width="0"
     id="path5" />
</svg>
