<svg height="512" viewBox="0 0 512 512" width="512" xmlns="http://www.w3.org/2000/svg"><g stroke-linecap="round" stroke-linejoin="round"><path d="m0 0h512v512h-512z" fill="#11284c"/><g fill="#fff" transform="translate(0 -24.122515)"><path d="m29.64882 204.89779v5.62538h8.410769v32.93308h7.154615v-32.93308h8.356154v-5.62538zm27.844758-3.05846v41.61692h6.826923v-14.74615c0-3.33154.163846-5.02462 1.092307-6.44462.436923-.71 1.638462-2.18462 3.986923-2.18462.491539 0 1.529231 0 2.512308.81924 1.747692 1.47461 1.529231 3.87769 1.529231 5.84384v16.71231h6.826923v-18.13231c0-1.52923 0-3.05846-.382308-4.58769-.655385-2.73077-2.566923-5.02462-5.297692-5.84385-.873846-.27307-1.747692-.3823-2.676154-.3823-3.659231 0-5.734615 1.47461-7.81 4.36923.163846-1.09231.163846-2.23923.218462-3.38616v-13.65384zm49.690892 34.89923c-2.73077 1.42-4.31462 2.18461-7.427693 2.18461-.382308 0-1.583847 0-2.73077-.38231-3.222307-1.0923-4.041538-4.20538-4.26-5.18846-.218461-1.03769-.218461-1.8023-.218461-2.29384h16.330004c0-6.11693-.65539-9.17539-2.29385-11.74231-2.02077-3.22231-5.24308-4.80615-8.956923-4.80615-1.42 0-4.041539.16384-6.826923 2.34846-3.877692 3.16769-4.533076 7.64615-4.751538 9.28461-.05461.54616-.218461 1.74769-.218461 3.22231 0 8.68385 4.314614 12.39769 7.973845 13.76308 2.184615.81923 4.423846.81923 5.188461.81923 4.150769 0 6.717689-1.09231 8.356149-1.74769zm-14.746155-9.94c.163846-1.91154.218462-3.60462 1.201539-5.24308 1.310769-2.13 3.003846-2.34846 3.986923-2.34846.873846-.0546 2.403073.10923 3.495383 1.91154 1.20154 1.96615 1.14692 5.40692 1.14692 5.68zm41.653345-21.90077v39.27c0 2.07538-.0546 4.47846-1.91154 5.84384-.43692.3277-1.25615.81923-2.67615.81923-1.0377 0-1.7477-.27307-2.73077-.71l-.21846 6.11693c2.02077.43692 2.84.76461 4.91538.76461.60077 0 2.40308 0 4.09615-.71 5.24308-2.23923 5.51616-8.46538 5.57077-9.72154.0546-.71.10923-1.47461.10923-2.18461v-39.48846zm25.82397 9.61231c-2.56692 0-5.02461.60077-7.15461 2.02076-5.57077 3.76847-5.51616 10.92308-5.51616 12.56154 0 9.61231 5.02462 13.49 9.17539 14.47308.71.16385 1.85692.38231 3.49538.38231 1.96616 0 3.11308-.21846 3.93231-.49154 1.91154-.54615 3.60462-1.58385 4.91539-2.94923 3.00384-3.16769 3.71384-7.26385 3.76846-11.36 0-4.20539-.87385-8.41077-4.04154-11.46923s-7.04539-3.16769-8.57462-3.16769zm-.0546 4.97c3.65923 0 5.51615 3.71384 5.51615 10.10384 0 4.36923-.92846 7.04539-2.45769 8.35616-.92846.76461-1.80231 1.0923-2.94923 1.0923-2.84 0-4.09615-2.29384-4.47846-3.05846-.81923-1.74769-1.09231-4.86077-1.09231-6.77231 0-2.34846.32769-6.44461 2.13-8.35615 1.20154-1.25615 2.67615-1.36538 3.33154-1.36538zm41.00705-4.47847h-6.82692v16.6577c-.0546 1.47461-.16385 2.13-.3277 2.78538-.27307.92846-1.52923 3.93231-4.80615 3.93231-1.03769 0-1.74769-.32769-2.07538-.54616-1.7477-.98307-1.85693-3.00384-1.91154-4.75153v-18.0777h-6.82693v18.35077c.0546 2.67616.10923 5.40693 1.85693 7.64616 2.07538 2.73077 5.51615 2.94923 6.49923 2.94923 4.04154 0 6.39-2.40308 7.26384-3.60462.3277-.38231.60077-.87384.81923-1.31077.0546 1.52923.10924 2.94923.16385 4.42385h6.49923c-.21846-2.51231-.21846-5.07923-.32769-7.64615zm6.43551 0c.10923 1.69308.27308 3.38616.38231 5.07923.10923 1.63847.16385 3.22231.10923 4.86077v18.51462h6.88154v-15.45615c.0546-1.0377.0546-1.09231.16384-1.80231.3277-2.02077 1.47462-3.93231 3.44077-4.86077 1.09231-.49154 2.34847-.54616 2.73077-.54616.65539 0 1.36539.10924 1.58385.16385l.0546-6.22615c-.32769-.0546-.60076-.0546-.87384-.0546-2.62154 0-4.97 1.14692-6.44462 3.27692-.49154.65539-.92846 1.52924-1.25615 2.23924-.0546-1.7477-.16385-3.49539-.32769-5.18847zm19.43398 0c.21846 2.40308.27307 4.75154.32769 7.15462v21.3h6.82692v-16.65769c.0546-1.58385.0546-3.11308 1.03769-4.53308 1.31077-1.85692 3.1677-2.07538 3.98693-2.07538.43692 0 1.20153 0 2.13.54615 1.63846.92846 1.91153 2.94923 1.91153 4.64231v18.07769h6.82693v-19.33385c0-.49154 0-2.56692-.60077-4.31461-1.20154-3.38616-4.31462-5.29769-7.86462-5.29769-4.09615 0-6.44461 2.5123-7.26384 3.71384-.27308.38231-.54616.87385-.76462 1.36539 0-1.52923-.10923-3.00385-.16384-4.5877zm51.54782 10.10385c-.0546-2.67615-.21847-5.13385-2.02077-7.26385-.27308-.32769-.98308-1.03769-1.96616-1.63846-2.73077-1.58384-6.39-1.69307-7.15461-1.69307-4.20539 0-7.86462 1.58384-9.17539 2.07538l.38231 5.51615c1.14692-.71 4.09615-2.62153 7.97385-2.62153 3.82307 0 4.86077 2.07538 5.29769 3.71384.21846 1.03769.27308 1.52923.27308 2.62154-.54616-.0546-1.14693-.0546-1.69308-.0546-3.71385 0-6.66308.54616-7.97385.92847-1.25615.3823-2.45769.87384-3.55 1.63846-3.16769 2.29384-3.55 5.51615-3.55 6.88154 0 2.56692 1.14693 5.3523 3.22231 6.93615 1.03769.81923 2.73077 1.80231 5.62539 1.80231 2.45769 0 4.20538-.60077 6.0623-2.18462 1.09231-.92846 1.85693-1.85692 2.13-2.23923v1.09231c0 .92846.10923 1.91154.16385 2.84h6.33538c-.27307-2.40308-.27307-4.80615-.3823-7.20923zm-6.39 6.66308c-.0546 2.62154-.65539 5.29769-3.11308 6.66307-.98308.54616-1.91154.81923-3.00385.81923-2.45769 0-3.49538-1.58384-3.87769-2.45769-.10923-.27307-.32769-.98307-.32769-1.80231 0-2.56692 1.74769-3.76846 2.51231-4.20538 2.07538-1.14692 4.86077-1.25615 5.46153-1.25615.76462-.0546 1.58385 0 2.34847 0zm13.1532-29.92923v41.61692h6.82692v-41.61692zm39.85103 12.67077c-2.56693 0-5.02462.60077-7.15462 2.02076-5.57077 3.76847-5.51615 10.92308-5.51615 12.56154 0 9.61231 5.02461 13.49 9.17538 14.47308.71.16385 1.85692.38231 3.49539.38231 1.96615 0 3.11307-.21846 3.9323-.49154 1.91154-.54615 3.60462-1.58385 4.91539-2.94923 3.00384-3.16769 3.71384-7.26385 3.76846-11.36 0-4.20539-.87385-8.41077-4.04154-11.46923s-7.04538-3.16769-8.57461-3.16769zm-.0546 4.97c3.65923 0 5.51615 3.71384 5.51615 10.10384 0 4.36923-.92846 7.04539-2.45769 8.35616-.92846.76461-1.80231 1.0923-2.94923 1.0923-2.84 0-4.09615-2.29384-4.47846-3.05846-.81923-1.74769-1.09231-4.86077-1.09231-6.77231 0-2.34846.32769-6.44461 2.13-8.35615 1.20154-1.25615 2.67616-1.36538 3.33154-1.36538zm15.39244-4.47847v4.97h4.75153v23.48462h6.77231v-23.48462h5.13385v-4.97h-5.13385v-3.87769c.0546-1.47461.10923-2.94923 1.52923-3.87769.60077-.38231 1.31077-.54615 2.02077-.54615 1.09231 0 1.96616.3823 2.34846.49153l.10923-5.07923c-.65538-.10923-2.45769-.49153-4.47846-.49153-3.00384 0-4.86077.92846-5.84384 1.8023-.21846.16385-.71.71-1.14693 1.47462-1.31077 2.18461-1.25615 4.58769-1.31077 5.40692v4.69692z"/><path d="m35.838565 262.88942v72.83267h13.617442v-28.36966h4.951796c6.292908 0 8.87197-.41265 12.070005-1.34112 9.697269-2.9917 14.133253-11.2447 14.133253-20.94197 0-14.5459-9.284618-19.49769-14.85539-21.14829-4.126497-1.13479-8.149833-1.13479-12.379493-1.03163zm13.101629 10.31624h2.579061c5.364446-.1032 11.45103.30949 14.236416 6.18976.825299 1.75375 1.237949 4.02333 1.237949 6.08657 0 1.13479-.103166 4.53916-2.372736 7.32454-2.372736 2.99171-6.086584 4.02333-9.697269 4.22966-1.134787.1032-2.372735.1032-3.507522.1032h-2.475899zm40.958506-16.09333v78.60976h12.89531v-27.85385c0-6.2929.30948-9.49094 2.06325-12.17317.8253-1.3411 3.09487-4.12649 7.53085-4.12649.92846 0 2.88855 0 4.74547 1.54744 3.30121 2.78538 2.88855 7.32452 2.88855 11.03837v31.5677h12.89531v-34.24992c0-2.88855 0-5.7771-.72214-8.66564-1.23795-5.15813-4.84863-9.49095-10.00676-11.03838-1.6506-.51581-3.30119-.72214-5.05496-.72214-6.91188 0-10.83205 2.78538-14.75223 8.253.30949-2.06326.30949-4.22967.41266-6.39608v-25.7906zm49.521 24.86214 17.74393 54.16028c-1.03163 6.18974-1.6506 9.07829-4.43598 11.14155-.8253.5158-2.16641 1.23795-4.53915 1.23795-1.85692 0-2.26957-.41266-3.92017-.82531l-.51581 9.9036c3.19804.92846 6.18974 1.03162 7.42769 1.03162 7.22137 0 11.76052-2.88855 14.75223-9.59411.82529-1.85692 1.6506-4.53915 2.26958-6.60239l18.46607-60.45319h-12.58582l-10.21307 41.57446-10.93522-41.57446zm83.77095 1.23795c-5.77709-1.85693-11.03838-2.16641-13.20479-2.16641s-8.04667.1032-13.10163 4.1265c-5.36445 4.1265-5.98342 9.49094-5.98342 11.96684 0 6.08658 3.3012 11.03839 8.45932 13.92692 1.85692 1.03163 3.61069 1.65061 4.22966 1.85693 4.9518 1.85692 7.11821 2.47589 8.97513 4.74547.30949.41265.92846 1.23795 1.03163 2.68223 0 2.99171-2.68223 6.39607-8.87198 6.39607-3.30119 0-8.35615-1.13479-11.34787-2.57907-.61897-.30949-1.23794-.61897-1.85692-1.03161l-.72213 10.93521c7.63402 2.26957 12.17317 2.57906 15.88701 2.57906 2.57907 0 11.65736.1032 16.71232-7.63402 1.75376-2.57906 2.57906-5.67393 2.57906-8.76881 0-8.7688-6.91189-13.20479-9.28462-14.5459-1.75376-.92847-4.1265-1.85693-4.43599-1.96008-2.47589-.92846-6.49923-2.16641-8.14983-4.53915-.82529-1.13479-.92846-2.16641-.92846-2.68222 0-2.88855 2.26958-5.88026 8.14983-5.88026 4.22967 0 7.42769 1.44427 11.14154 2.68222zm11.96985-1.23795v53.74762h12.89531v-53.74762zm-.30949-22.7989v12.68899h13.61745v-12.68899zm46.63248 21.87044c-4.84864 0-9.49094 1.13479-13.51428 3.81701-10.52256 7.1182-10.41941 20.63249-10.41941 23.72736 0 18.15659 9.49095 25.48112 17.3313 27.33805 1.34111.30948 3.50752.72213 6.60239.72213 3.71385 0 5.88026-.41265 7.4277-.92847 3.61069-1.03161 6.80871-2.9917 9.28461-5.57077 5.67394-5.98342 7.01505-13.7206 7.11822-21.45778 0-7.94351-1.6506-15.88701-7.63403-21.66411-5.98342-5.77709-13.30795-5.98342-16.1965-5.98342zm-.1032 9.38778c6.91189 0 10.41941 7.01505 10.41941 19.08505 0 8.253-1.75375 13.30796-4.64231 15.78386-1.75376 1.44427-3.40435 2.06324-5.57076 2.06324-5.36445 0-7.7372-4.33282-8.45932-5.77709-1.54744-3.3012-2.06326-9.18146-2.06326-12.79214 0-4.43599.61897-12.17318 4.02333-15.78386 2.26958-2.37273 5.05496-2.57906 6.29291-2.57906zm33.42764-33.32146v78.60976h12.89531v-78.60976zm46.323 23.93368c-4.84864 0-9.49095 1.13479-13.51428 3.81701-10.52257 7.1182-10.41941 20.63249-10.41941 23.72736 0 18.15659 9.49095 25.48112 17.33129 27.33805 1.34112.30948 3.50753.72213 6.6024.72213 3.71384 0 5.88025-.41265 7.42769-.92847 3.61069-1.03161 6.80872-2.9917 9.28463-5.57077 5.67392-5.98342 7.01504-13.7206 7.1182-21.45778 0-7.94351-1.6506-15.88701-7.63402-21.66411-5.98342-5.77709-13.30795-5.98342-16.1965-5.98342zm-.1032 9.38778c6.91188 0 10.41941 7.01505 10.41941 19.08505 0 8.253-1.75376 13.30796-4.64231 15.78386-1.75377 1.44427-3.40436 2.06324-5.57077 2.06324-5.36445 0-7.73719-4.33282-8.45932-5.77709-1.54744-3.3012-2.06326-9.18146-2.06326-12.79214 0-4.43599.61898-12.17318 4.02334-15.78386 2.26957-2.37273 5.05496-2.57906 6.29291-2.57906zm76.44638-1.34111c.1032-2.37274.30949-4.74547.41265-7.11821h-12.17317c-.30949 2.78538-.30949 5.46761-.30949 8.253-.30949-.41266-.92846-1.6506-1.85692-2.78539-.8253-1.03162-1.75376-1.96009-2.68222-2.78538-1.54744-1.23795-4.53914-3.61069-9.49095-3.61069-2.37273 0-6.6024.41265-10.83205 4.33282-4.33282 3.92018-8.04667 10.52257-8.04667 23.10839 0 7.32453 1.23795 15.68068 6.29291 21.56095 3.30119 3.817 7.32453 5.67392 12.48265 5.67392 2.78539 0 4.74547-.61897 5.67394-1.03161 4.74546-2.06326 7.63401-7.01505 8.35615-8.14984-.41265 8.14984-.20633 12.17317-2.16641 15.88702-.72214 1.34111-1.6506 2.57906-2.88855 3.50752-3.30119 2.4759-8.04666 2.68222-9.07829 2.68222-5.7771 0-11.65736-2.57906-12.99846-3.19804-.82531-.41264-1.75377-.92846-2.57907-1.3411l-.61897 11.45102c3.40436 1.1348 9.07829 3.09488 17.64077 3.09488 3.81701 0 6.18975-.41265 7.73719-.72213 4.64231-1.03163 7.9435-3.40437 9.28461-4.53916 6.70557-5.77709 7.32454-14.33957 7.63403-17.0218.1032-1.75376.20632-3.61068.20632-5.4676zm-22.48941 1.85693c4.74547.20632 7.01504 3.817 7.73718 5.05495 2.37273 4.64232 2.16641 12.17318 2.16641 12.8953 0 8.253-1.23795 12.07002-4.22965 15.06172-.72214.72214-2.37275 2.37273-5.36445 2.37273-3.40436 0-5.26128-1.75375-6.08659-2.78538-.8253-1.03162-1.23795-2.06325-1.44427-2.57905-1.96009-4.74548-1.85692-10.41941-1.85692-11.76053 0-8.76881 1.23795-14.33957 4.6423-16.91864 1.75376-1.3411 3.61068-1.3411 4.43599-1.3411zm28.99166-8.97514 17.74393 54.16028c-1.03162 6.18974-1.65059 9.07829-4.43597 11.14155-.82531.5158-2.16643 1.23795-4.53916 1.23795-1.85692 0-2.26957-.41266-3.92016-.82531l-.51582 9.9036c3.19803.92846 6.18974 1.03162 7.42769 1.03162 7.22137 0 11.76052-2.88855 14.75223-9.59411.8253-1.85692 1.6506-4.53915 2.26957-6.60239l18.46608-60.45319h-12.58582l-10.21308 41.57446-10.93521-41.57446z"/></g></g></svg>